<svg width="1200" height="420" viewBox="0 0 1200 420" fill="none" xmlns="http://www.w3.org/2000/svg" role="img" aria-labelledby="title desc">
  <title id="title">Tőzsde AI dark concept 2 monolith</title>
  <desc id="desc">Dark Tőzsde AI logo concept with a minimal monolithic T mark.</desc>
  <rect width="1200" height="420" fill="#07110D"/>
  <rect x="1" y="1" width="1198" height="418" stroke="#14251B" stroke-width="2"/>
  <g transform="translate(176 104)">
    <path d="M8 28C8 20.3 14.3 14 22 14H190C197.7 14 204 20.3 204 28V40C204 47.7 197.7 54 190 54H22C14.3 54 8 47.7 8 40V28Z" fill="#F8FAFC"/>
    <path d="M42 84C42 76.3 48.3 70 56 70H92C99.7 70 106 76.3 106 84V202L74 224L42 202V84Z" fill="#22C55E"/>
    <path d="M130 84C130 76.3 136.3 70 144 70H180C187.7 70 194 76.3 194 84V202L162 224L130 202V84Z" fill="#27333B"/>
    <path d="M106 70H130V184H106V70Z" fill="#101A20"/>
  </g>
  <text x="430" y="244" fill="#F8FAFC" font-family="Sora, Inter, Arial, sans-serif" font-size="92" font-weight="800" letter-spacing="0">Tőzsde</text>
  <text x="808" y="244" fill="#22C55E" font-family="Sora, Inter, Arial, sans-serif" font-size="92" font-weight="800" letter-spacing="0">AI</text>
  <text x="176" y="356" fill="#789080" font-family="Inter, Arial, sans-serif" font-size="24" font-weight="700" letter-spacing="0">02 / MONOLITH T</text>
</svg>
