<svg width="1200" height="420" viewBox="0 0 1200 420" fill="none" xmlns="http://www.w3.org/2000/svg" role="img" aria-labelledby="title desc">
  <title id="title">Tőzsde AI fresh concept 7 AI seed</title>
  <desc id="desc">Refined AI seed icon suggesting intelligent compounding.</desc>
  <rect width="1200" height="420" fill="#14212A"/>
  <g transform="translate(176 82)">
    <path d="M76 246C42 164 70 86 172 28C164 110 194 144 154 202C136 228 108 242 76 246Z" stroke="#EEF6F2" stroke-opacity=".86" stroke-width="14" stroke-linecap="round" stroke-linejoin="round"/>
    <path d="M104 226C108 150 148 104 214 70C202 150 174 204 104 226Z" fill="#26333E"/>
    <path d="M122 182C130 132 162 104 208 82C199 138 174 174 122 182Z" fill="#22C55E"/>
    <path d="M98 230C116 184 148 150 194 122" stroke="#DCE6EE" stroke-opacity=".36" stroke-width="10" stroke-linecap="round"/>
  </g>
  <text x="430" y="244" fill="#F8FAFC" font-family="Sora, Inter, Arial, sans-serif" font-size="92" font-weight="800" letter-spacing="0">Tőzsde</text>
  <text x="808" y="244" fill="#22C55E" font-family="Sora, Inter, Arial, sans-serif" font-size="92" font-weight="800" letter-spacing="0">AI</text>
  <text x="170" y="356" fill="#91A0AD" font-family="Inter, Arial, sans-serif" font-size="23" font-weight="700" letter-spacing="0">07 / AI SEED</text>
</svg>
