<svg width="1200" height="420" viewBox="0 0 1200 420" fill="none" xmlns="http://www.w3.org/2000/svg" role="img" aria-labelledby="title desc">
  <title id="title">Tőzsde AI shield variant 4 faceted green</title>
  <desc id="desc">Fully green faceted shield mark with white Tőzsde wordmark and green AI.</desc>
  <rect width="1200" height="420" fill="#090B0F"/>
  <g transform="translate(170 102)">
    <path d="M110 14L208 70V182L110 238L12 182V70L110 14Z" fill="#22C55E"/>
    <path d="M110 14L208 70L110 92L12 70L110 14Z" fill="#4ADE80"/>
    <path d="M208 70V182L150 168L110 92L208 70Z" fill="#16A34A"/>
    <path d="M12 70L110 92L70 168L12 182V70Z" fill="#15803D"/>
    <path d="M70 168H150L110 238L70 168Z" fill="#22C55E"/>
    <path d="M76 164L110 99L144 164H76Z" fill="#090B0F" fill-opacity=".82"/>
  </g>
  <text x="430" y="244" fill="#F8FAFC" font-family="Sora, Inter, Arial, sans-serif" font-size="92" font-weight="800" letter-spacing="0">Tőzsde</text>
  <text x="808" y="244" fill="#22C55E" font-family="Sora, Inter, Arial, sans-serif" font-size="92" font-weight="800" letter-spacing="0">AI</text>
</svg>
